<?xml version="1.0" encoding="UTF-8"?>
<svg xmlns="http://www.w3.org/2000/svg" xmlns:xlink="http://www.w3.org/1999/xlink" viewBox="0 0 14.08 24.02">
  <defs>
    <style>
      .cls-1 {
        fill: #757575;
      }

      .cls-2 {
        fill: #7c7c7c;
      }

      .cls-3 {
        fill: url(#linear-gradient-2);
      }

      .cls-4 {
        fill: #4da391;
      }

      .cls-5 {
        mask: url(#mask-1);
      }

      .cls-6 {
        fill: #484a49;
      }

      .cls-7 {
        fill: #848484;
      }

      .cls-8 {
        fill: #4e4e4e;
      }

      .cls-9 {
        fill: #c2c2c2;
      }

      .cls-10 {
        fill: #3f3f3f;
      }

      .cls-11 {
        fill: #bababa;
      }

      .cls-12 {
        fill: #c9c9c9;
      }

      .cls-13 {
        fill: #fff;
      }

      .cls-14 {
        mask: url(#mask);
      }

      .cls-15 {
        fill: #5e5e5e;
      }

      .cls-16 {
        fill: #f0f0f0;
      }

      .cls-17 {
        opacity: .73;
      }

      .cls-18 {
        fill: #606262;
      }

      .cls-19 {
        fill: #9b9b9b;
      }

      .cls-20 {
        fill: #5a5c5c;
      }

      .cls-21 {
        fill: #c2c3c2;
      }

      .cls-22 {
        fill: #303030;
      }

      .cls-23 {
        fill: #8b8c8c;
      }

      .cls-24 {
        fill: url(#radial-gradient);
      }

      .cls-25 {
        fill: #b2b2b2;
      }

      .cls-26 {
        fill: #a9abaa;
      }

      .cls-27 {
        fill: #e0e0e0;
      }

      .cls-28 {
        fill: #f9f9f9;
      }

      .cls-29 {
        fill: #3b3e3d;
      }

      .cls-30 {
        fill: #dadbdb;
      }

      .cls-31 {
        fill: #475e88;
      }

      .cls-32 {
        fill: #858686;
      }

      .cls-33 {
        fill: #9d9f9e;
      }

      .cls-34 {
        isolation: isolate;
      }

      .cls-35 {
        fill: #282828;
      }

      .cls-36 {
        fill: #7f8080;
      }

      .cls-37 {
        fill: #656565;
      }

      .cls-38 {
        fill: #424443;
      }

      .cls-39 {
        fill: #373737;
      }

      .cls-40 {
        fill: #8c8c8c;
      }

      .cls-41 {
        fill: #939393;
      }

      .cls-42 {
        fill: #4e504f;
      }

      .cls-43 {
        fill: #6d6d6d;
      }

      .cls-44 {
        fill: #474747;
      }

      .cls-45 {
        fill: #797a7a;
      }

      .cls-46 {
        mix-blend-mode: multiply;
      }

      .cls-47 {
        fill: #292c2b;
      }

      .cls-48 {
        letter-spacing: -.01em;
      }

      .cls-49 {
        font-family: Montserrat-Regular, Montserrat;
        font-size: 1.5px;
      }

      .cls-50 {
        fill: #a3a5a4;
      }

      .cls-51 {
        fill: #2f3231;
      }

      .cls-52 {
        fill: #c8c9c8;
      }

      .cls-53 {
        fill: #e0e1e1;
      }

      .cls-54 {
        fill: #545655;
      }

      .cls-55 {
        letter-spacing: 0em;
      }

      .cls-56 {
        fill: #b0b1b0;
      }

      .cls-57 {
        fill: #a3a3a3;
      }

      .cls-58 {
        fill: #ababab;
      }

      .cls-59 {
        fill: #565656;
      }

      .cls-60 {
        fill: #e7e7e7;
      }

      .cls-61 {
        fill: #ededed;
      }

      .cls-62 {
        letter-spacing: -.01em;
      }

      .cls-63 {
        fill: #b6b7b6;
      }

      .cls-64 {
        fill: #727474;
      }

      .cls-65 {
        fill: #cecfcf;
      }

      .cls-66 {
        fill: #6c6e6e;
      }

      .cls-67 {
        fill: url(#linear-gradient);
      }

      .cls-68 {
        fill: #d1d1d1;
      }

      .cls-69 {
        fill: #d4d5d5;
      }

      .cls-70 {
        fill: #d9d9d9;
      }

      .cls-71 {
        fill: #666868;
      }

      .cls-72 {
        fill: #f7f7f7;
      }

      .cls-73 {
        fill: #bcbdbc;
      }

      .cls-74 {
        fill: #353837;
      }

      .cls-75 {
        fill: #979998;
      }

      .cls-76 {
        fill: #f3f3f3;
      }

      .cls-77 {
        fill: #e8e8e8;
      }

      .cls-78 {
        fill: #919292;
      }

      .cls-79 {
        fill: #232625;
      }
    </style>
    <linearGradient id="linear-gradient" x1="-42.17" y1="14.54" x2="-43.88" y2="11.51" gradientTransform="translate(48.69 10.24) rotate(19.67) scale(.98) skewX(.3)" gradientUnits="userSpaceOnUse">
      <stop offset="0" stop-color="#000"/>
      <stop offset=".08" stop-color="#090909"/>
      <stop offset=".23" stop-color="#232323"/>
      <stop offset=".41" stop-color="#4c4c4c"/>
      <stop offset=".62" stop-color="#868686"/>
      <stop offset=".86" stop-color="#cfcfcf"/>
      <stop offset="1" stop-color="#fff"/>
    </linearGradient>
    <mask id="mask" x="2.62" y="5.68" width="4.23" height="5.73" maskUnits="userSpaceOnUse">
      <polygon class="cls-67" points="5.6 11.41 2.62 9.66 3.88 5.68 6.86 7.44 5.6 11.41"/>
    </mask>
    <linearGradient id="linear-gradient-2" x1="12.68" y1="-14.5" x2="12.84" y2="-17.84" gradientTransform="translate(-8.67 23.46) scale(1 1.09)" gradientUnits="userSpaceOnUse">
      <stop offset=".26" stop-color="#000"/>
      <stop offset=".32" stop-color="#090909"/>
      <stop offset=".43" stop-color="#232323"/>
      <stop offset=".56" stop-color="#4e4e4e"/>
      <stop offset=".72" stop-color="#888"/>
      <stop offset=".9" stop-color="#d2d2d2"/>
      <stop offset="1" stop-color="#fff"/>
    </linearGradient>
    <mask id="mask-1" x="-2.1" y="-1.95" width="12.51" height="12.5" maskUnits="userSpaceOnUse">
      <rect class="cls-3" x="-.27" y="-.16" width="8.86" height="8.91" transform="translate(-1.81 4.78) rotate(-50.62)"/>
    </mask>
    <radialGradient id="radial-gradient" cx="11.3" cy="-13.21" fx="11.3" fy="-13.21" r="3.59" gradientTransform="translate(8.96 25.08) rotate(-50.63) scale(1.18 1.24)" gradientUnits="userSpaceOnUse">
      <stop offset=".63" stop-color="#000"/>
      <stop offset=".83" stop-color="#fff"/>
    </radialGradient>
  </defs>
  <g class="cls-34">
    <g id="Layer_1">
      <g>
        <g>
          <g class="cls-14">
            <g class="cls-46">
              <polygon class="cls-13" points="3.64 6.64 4.51 6.48 5.61 9.88 3.52 9.78 3.64 6.64"/>
              <polygon class="cls-72" points="3.64 6.64 4.51 6.48 5.59 9.84 3.55 9.77 3.64 6.64"/>
              <polygon class="cls-16" points="3.64 6.64 4.51 6.48 5.56 9.81 3.58 9.77 3.64 6.64"/>
              <polygon class="cls-77" points="3.64 6.64 4.51 6.48 5.54 9.77 3.62 9.77 3.64 6.64"/>
              <polygon class="cls-27" points="3.64 6.64 4.5 6.48 5.52 9.73 3.65 9.77 3.64 6.64"/>
              <polygon class="cls-70" points="3.64 6.64 4.5 6.48 5.49 9.69 3.68 9.77 3.64 6.64"/>
              <polygon class="cls-68" points="3.64 6.64 4.5 6.48 5.47 9.65 3.71 9.76 3.64 6.64"/>
              <polygon class="cls-12" points="3.64 6.64 4.5 6.48 5.44 9.62 3.74 9.76 3.64 6.64"/>
              <polygon class="cls-9" points="3.64 6.64 4.49 6.48 5.42 9.58 3.78 9.76 3.64 6.64"/>
              <polygon class="cls-11" points="3.64 6.64 4.49 6.48 5.4 9.54 3.81 9.76 3.64 6.64"/>
              <polygon class="cls-25" points="3.64 6.64 4.49 6.48 5.37 9.5 3.84 9.76 3.64 6.64"/>
              <polygon class="cls-58" points="3.64 6.64 4.49 6.48 5.35 9.46 3.87 9.75 3.64 6.64"/>
              <polygon class="cls-57" points="3.64 6.64 4.48 6.48 5.32 9.43 3.9 9.75 3.64 6.64"/>
              <polygon class="cls-19" points="3.64 6.64 4.48 6.48 5.3 9.39 3.94 9.75 3.64 6.64"/>
              <polygon class="cls-41" points="3.64 6.64 4.48 6.48 5.27 9.35 3.97 9.75 3.64 6.64"/>
              <polygon class="cls-40" points="3.64 6.64 4.48 6.48 5.25 9.31 4 9.75 3.64 6.64"/>
              <polygon class="cls-7" points="3.64 6.64 4.47 6.48 5.23 9.27 4.03 9.75 3.64 6.64"/>
              <polygon class="cls-2" points="3.64 6.64 4.47 6.48 5.2 9.24 4.06 9.74 3.64 6.64"/>
              <polygon class="cls-1" points="3.64 6.64 4.47 6.48 5.18 9.2 4.1 9.74 3.64 6.64"/>
              <polygon class="cls-43" points="3.64 6.64 4.47 6.48 5.15 9.16 4.13 9.74 3.64 6.64"/>
              <polygon class="cls-37" points="3.64 6.64 4.47 6.48 5.13 9.12 4.16 9.74 3.64 6.64"/>
              <polygon class="cls-15" points="3.64 6.64 4.46 6.48 5.11 9.08 4.19 9.74 3.64 6.64"/>
              <polygon class="cls-59" points="3.64 6.64 4.46 6.48 5.08 9.05 4.22 9.73 3.64 6.64"/>
              <polygon class="cls-8" points="3.64 6.64 4.46 6.48 5.06 9.01 4.26 9.73 3.64 6.64"/>
              <polygon class="cls-44" points="3.64 6.64 4.46 6.48 5.03 8.97 4.29 9.73 3.64 6.64"/>
              <polygon class="cls-10" points="3.64 6.64 4.45 6.48 5.01 8.93 4.32 9.73 3.64 6.64"/>
              <polygon class="cls-39" points="3.64 6.64 4.45 6.48 4.99 8.89 4.35 9.73 3.64 6.64"/>
              <polygon class="cls-22" points="3.64 6.64 4.45 6.48 4.96 8.86 4.38 9.72 3.64 6.64"/>
              <polygon class="cls-35" points="3.64 6.64 4.45 6.48 4.94 8.82 4.42 9.72 3.64 6.64"/>
            </g>
          </g>
          <path class="cls-31" d="M5.88,5.91l1.38,2.6c.03.06.06.13.11.2.04.08.07.15.07.2,0,.07-.02.12-.06.15-.04.03-.1.05-.17.05h-2.09c-.07,0-.13-.02-.19-.06-.05-.04-.09-.1-.11-.16l-1.23-2.31c.1,0,.22-.02.35-.04.84-.11,1.48-.37,1.94-.62h0Z"/>
          <g class="cls-46">
            <g class="cls-5">
              <path class="cls-24" d="M7.03,1.11c1.9,1.56,3.05,4.27,1.58,6.08-1.48,1.8-5.02,2-6.92.44C-.22,6.08-.56,3.35.92,1.55,2.39-.25,5.13-.45,7.03,1.11Z"/>
            </g>
            <path class="cls-13" d="M5.69.7c1.33,1.1,1.73,2.78.69,4.05-1.04,1.27-4.11,1.43-5.45.33C-.4,3.98.02,2.37,1.06,1.1,2.1-.16,4.36-.4,5.69.7Z"/>
          </g>
          <path class="cls-4" d="M6.96,1.88c-.16-.36-.37-.67-.64-.94-.27-.27-.59-.48-.95-.63-.37-.16-.75-.24-1.17-.24H.27C.18.07.11.1.07.15.02.2,0,.27,0,.35v8.5c0,.09.03.15.07.2.05.04.12.06.2.06h1.81c.19,0,.28-.08.28-.26v-2.74h.77c.92-.03,2.46-.32,3.16-1,.19-.17.34-.37.48-.59.13-.22.24-.45.32-.7.07-.25.11-.51.11-.79,0-.41-.08-.79-.24-1.15ZM4.81,4.89c-.18.13-.38.22-.59.29-.21.07-.43.1-.66.1-.2,0-.4-.03-.59-.08-.19-.05-.37-.13-.53-.22-.17-.1-.32-.21-.45-.35-.13-.13-.25-.29-.35-.45-.09-.16-.17-.34-.22-.53-.05-.19-.08-.38-.08-.59s.03-.4.08-.59c.05-.19.13-.37.22-.53.1-.17.21-.32.35-.46.13-.13.29-.25.45-.34.16-.1.34-.17.53-.22.19-.05.38-.08.59-.08.23,0,.45.03.66.09.21.07.4.16.58.28.04.02.06.04.08.08.01.03,0,.07,0,.11l-.49.7s-.04.05-.07.05c-.03,0-.06,0-.09-.02-.1-.07-.2-.12-.32-.16-.11-.04-.23-.06-.36-.06-.16,0-.3.03-.44.09-.13.06-.25.14-.34.25-.1.11-.17.23-.23.37-.05.14-.08.29-.08.45s.03.31.08.45c.05.14.13.26.23.36.09.1.21.19.34.25.13.06.28.09.44.09.13,0,.25-.02.36-.06.12-.04.22-.09.32-.16.04-.02.06-.03.08-.03.03,0,.05.02.07.05l.5.71s.03.08,0,.11c-.01.03-.04.05-.07.07Z"/>
          <g class="cls-17">
            <g class="cls-46">
              <path class="cls-79" d="M4.78,4.88c-.18.12-.38.22-.59.29-.21.07-.43.1-.66.1-.2,0-.4-.03-.59-.08-.19-.05-.37-.13-.53-.22-.17-.1-.32-.21-.45-.35-.13-.13-.25-.29-.35-.45-.09-.17-.17-.34-.22-.53-.05-.19-.08-.38-.08-.59s.03-.4.08-.59c.05-.19.13-.37.22-.53.1-.17.21-.32.35-.46.13-.13.29-.25.45-.34.16-.1.34-.17.53-.22.19-.05.38-.08.59-.08.23,0,.45.03.66.09.21.07.4.16.58.28.04.02.06.04.08.08.01.03,0,.07,0,.11l-.49.7s-.05.05-.07.05c-.03,0-.06,0-.09-.02-.1-.07-.2-.12-.32-.16-.11-.04-.23-.06-.36-.06-.16,0-.3.03-.44.09-.13.06-.25.14-.34.25-.1.11-.17.23-.23.37-.05.14-.08.29-.08.45s.03.31.08.45c.05.14.13.26.23.36.09.1.21.19.34.25.13.06.28.09.44.09.13,0,.25-.02.36-.06.12-.04.22-.09.32-.17.04-.02.06-.03.08-.03.03,0,.05.02.07.05l.5.71s.03.08,0,.11c-.01.03-.04.05-.07.07Z"/>
              <path class="cls-47" d="M4.77,4.87c-.18.12-.38.22-.59.28s-.42.1-.66.1c-.2,0-.4-.03-.59-.08s-.36-.13-.53-.22-.32-.21-.45-.35c-.13-.13-.25-.28-.35-.44s-.17-.34-.22-.53-.08-.38-.08-.59.03-.4.08-.58.13-.36.22-.53.21-.32.35-.45.29-.25.45-.34.34-.17.53-.22c.19-.05.38-.08.59-.08.23,0,.45.03.65.09s.4.16.58.28c.03.02.06.04.07.08.01.03,0,.07,0,.11l-.49.69s-.05.05-.07.05c-.03,0-.06,0-.09-.02-.1-.07-.2-.12-.31-.16s-.23-.06-.36-.06c-.16,0-.3.03-.44.09s-.25.14-.34.24-.17.23-.23.36c-.05.14-.08.29-.08.44s.03.31.08.44c.05.14.13.26.23.36s.21.18.34.24.28.09.44.09c.13,0,.25-.02.36-.06s.22-.09.31-.16c.04-.02.06-.03.08-.03.03,0,.05.02.07.05l.49.71s.03.08,0,.11c-.01.03-.04.05-.07.07Z"/>
              <path class="cls-51" d="M4.77,4.86c-.18.12-.37.22-.58.28s-.42.1-.65.1c-.2,0-.4-.02-.58-.07s-.36-.13-.52-.22-.31-.21-.45-.34c-.13-.13-.25-.28-.34-.44s-.17-.34-.22-.53-.08-.38-.08-.58.03-.4.08-.58.13-.36.22-.53.21-.31.34-.45.28-.24.45-.34.33-.17.52-.22c.19-.05.38-.08.58-.08.23,0,.45.03.65.09s.4.16.57.28c.03.02.06.04.07.08.01.03,0,.07,0,.11l-.48.69s-.05.05-.07.05c-.03,0-.06,0-.09-.02-.1-.07-.2-.12-.31-.16s-.23-.06-.36-.06c-.16,0-.3.03-.43.09s-.25.14-.34.24-.17.23-.23.36c-.05.14-.08.29-.08.44s.03.3.08.44c.05.14.13.25.23.36s.21.18.34.24.28.09.43.09c.13,0,.25-.02.36-.06s.22-.09.31-.16c.04-.02.06-.03.08-.03.03,0,.05.02.07.05l.49.71s.03.08,0,.11c-.01.03-.04.05-.07.07Z"/>
              <path class="cls-74" d="M4.76,4.85c-.18.12-.37.22-.58.28s-.42.1-.65.1c-.2,0-.39-.02-.58-.07s-.36-.13-.52-.22-.31-.21-.44-.34c-.13-.13-.25-.28-.34-.44s-.17-.33-.22-.52-.08-.38-.08-.58.03-.39.08-.58c.05-.19.13-.36.22-.52s.21-.31.34-.45.28-.24.44-.34.33-.17.52-.22c.18-.05.38-.08.58-.08.23,0,.44.03.64.09s.4.16.57.28c.03.02.06.04.07.07.01.03,0,.07,0,.11l-.48.69s-.05.05-.07.05c-.02,0-.06,0-.09-.02-.1-.07-.2-.12-.31-.16s-.23-.06-.36-.06c-.15,0-.3.03-.43.09s-.25.14-.34.24-.17.22-.22.36c-.05.14-.08.28-.08.44s.03.3.08.44c.05.14.13.25.22.36s.21.18.34.24.28.09.43.09c.13,0,.25-.02.36-.06s.22-.09.31-.16c.04-.02.06-.03.08-.03.03,0,.05.02.07.05l.49.7s.03.08,0,.11c-.01.03-.04.05-.07.07Z"/>
              <path class="cls-29" d="M4.75,4.85c-.18.12-.37.21-.58.28s-.42.1-.65.1c-.2,0-.39-.02-.58-.07s-.36-.12-.52-.22-.31-.21-.44-.34c-.13-.13-.25-.28-.34-.44s-.17-.33-.22-.52-.08-.38-.08-.58.03-.39.08-.58c.05-.19.13-.36.22-.52s.21-.31.34-.45.28-.24.44-.34.33-.17.52-.22c.18-.05.38-.08.58-.08.23,0,.44.03.64.09s.39.16.57.27c.03.02.06.04.07.07.01.03,0,.07,0,.11l-.48.68s-.04.05-.07.05c-.02,0-.06,0-.09-.02-.1-.07-.2-.12-.31-.16s-.23-.06-.35-.06c-.15,0-.3.03-.43.09s-.24.14-.34.24-.17.22-.22.36c-.05.14-.08.28-.08.44s.03.3.08.44c.05.14.13.25.22.35s.21.18.34.24.27.09.43.09c.13,0,.24-.02.36-.06s.22-.09.31-.16c.04-.02.06-.03.08-.03.03,0,.05.02.07.05l.48.7s.03.08,0,.11c-.01.03-.04.05-.07.07Z"/>
              <path class="cls-38" d="M4.75,4.84c-.18.12-.37.21-.57.28s-.42.1-.64.1c-.2,0-.39-.02-.57-.07s-.36-.12-.52-.22-.31-.21-.44-.34c-.13-.13-.24-.28-.34-.43s-.17-.33-.22-.52-.08-.37-.08-.57.03-.39.08-.57c.05-.19.13-.36.22-.52s.21-.31.34-.44.28-.24.44-.33.33-.16.52-.22c.18-.05.37-.08.57-.08.23,0,.44.03.64.09s.39.16.56.27c.03.02.06.04.07.07.01.03,0,.06,0,.11l-.48.68s-.04.05-.07.05c-.02,0-.06,0-.09-.02-.1-.07-.2-.12-.31-.16s-.23-.06-.35-.06c-.15,0-.3.03-.43.09s-.24.14-.33.24-.17.22-.22.36c-.05.13-.08.28-.08.43s.03.3.08.43c.05.13.13.25.22.35s.2.18.33.24.27.09.43.09c.13,0,.24-.02.35-.06s.22-.09.31-.16c.04-.02.06-.03.08-.03.03,0,.05.02.07.05l.48.69s.03.08,0,.1c-.01.03-.04.05-.07.07Z"/>
              <path class="cls-6" d="M4.74,4.83c-.18.12-.37.21-.57.28s-.41.09-.64.09c-.2,0-.39-.02-.57-.07s-.35-.12-.51-.22-.31-.21-.44-.34c-.13-.13-.24-.27-.34-.43s-.16-.33-.22-.51-.08-.37-.08-.57.03-.39.08-.57c.05-.19.12-.35.22-.51s.21-.31.34-.44.28-.24.44-.33.33-.16.51-.22c.18-.05.37-.08.57-.08.22,0,.44.03.63.09s.39.16.56.27c.03.02.06.04.07.07.01.03,0,.06,0,.11l-.47.67s-.04.05-.07.05c-.02,0-.06,0-.09-.02-.09-.07-.19-.12-.31-.16s-.23-.06-.35-.06c-.15,0-.29.03-.42.09s-.24.14-.33.24-.17.22-.22.35c-.05.13-.08.28-.08.43s.03.3.08.43c.05.13.13.25.22.35s.2.18.33.24.27.09.42.09c.12,0,.24-.02.35-.06s.22-.09.31-.16c.04-.02.06-.03.08-.03.03,0,.05.02.07.05l.48.69s.03.08,0,.1c-.01.03-.04.05-.07.07Z"/>
              <path class="cls-42" d="M4.74,4.82c-.18.12-.36.21-.57.27s-.41.09-.63.09c-.2,0-.39-.02-.57-.07s-.35-.12-.51-.21-.3-.21-.43-.34c-.13-.13-.24-.27-.33-.43s-.16-.33-.22-.51-.08-.37-.08-.57.03-.39.08-.57c.05-.18.12-.35.22-.51s.2-.31.33-.44.28-.24.43-.33.33-.16.51-.21c.18-.05.37-.08.57-.08.22,0,.43.03.63.09s.39.15.56.27c.03.02.06.04.07.07.01.03,0,.06,0,.11l-.47.67s-.04.05-.07.05c-.02,0-.05,0-.09-.02-.09-.07-.19-.12-.3-.16s-.22-.06-.35-.06c-.15,0-.29.03-.42.09s-.24.14-.33.24-.17.22-.22.35c-.05.13-.08.28-.08.43s.02.3.08.43c.05.13.13.25.22.35s.2.18.33.24.27.09.42.09c.12,0,.24-.02.35-.06s.22-.09.3-.16c.04-.02.06-.03.08-.03.03,0,.05.02.07.05l.48.69s.03.08,0,.1c-.01.03-.04.05-.07.07Z"/>
              <path class="cls-54" d="M4.73,4.81c-.17.12-.36.21-.56.27s-.41.09-.63.09c-.2,0-.38-.02-.56-.07s-.35-.12-.51-.21-.3-.21-.43-.33c-.13-.13-.24-.27-.33-.43s-.16-.32-.21-.51c-.05-.18-.08-.37-.08-.56s.03-.38.08-.56c.05-.18.12-.35.21-.51s.2-.3.33-.44.27-.24.43-.33.32-.16.51-.21c.18-.05.37-.08.56-.08.22,0,.43.03.63.09s.38.15.56.27c.03.02.06.04.07.07.01.03,0,.06,0,.11l-.47.67s-.04.05-.07.05c-.02,0-.05,0-.08-.02-.09-.07-.19-.12-.3-.16s-.22-.06-.35-.06c-.15,0-.29.03-.42.09s-.24.14-.33.23-.17.22-.22.35c-.05.13-.08.28-.08.43s.02.29.08.43c.05.13.13.25.22.35s.2.18.33.23.27.09.42.09c.12,0,.24-.02.35-.06s.21-.09.3-.16c.03-.02.06-.03.08-.03.03,0,.05.02.07.05l.47.68s.03.08,0,.1c-.01.03-.04.05-.07.07Z"/>
              <path class="cls-20" d="M4.72,4.81c-.17.12-.36.21-.56.27s-.41.09-.63.09c-.19,0-.38-.02-.56-.07s-.35-.12-.5-.21-.3-.2-.43-.33c-.13-.13-.24-.27-.33-.42s-.16-.32-.21-.51c-.05-.18-.08-.36-.08-.56s.03-.38.08-.56c.05-.18.12-.35.21-.51s.2-.3.33-.43.27-.24.43-.33.32-.16.5-.21c.18-.05.37-.08.56-.08.22,0,.43.03.62.09s.38.15.55.27c.03.02.06.04.07.07.01.03,0,.06,0,.11l-.47.66s-.04.05-.07.05c-.02,0-.05,0-.08-.02-.09-.07-.19-.12-.3-.16s-.22-.05-.34-.05c-.15,0-.29.03-.42.08s-.24.14-.33.23-.17.22-.22.35c-.05.13-.08.28-.08.42s.02.29.08.42c.05.13.12.25.22.34s.2.18.33.23.27.09.42.09c.12,0,.24-.02.35-.06s.21-.09.3-.16c.03-.02.06-.03.08-.03.03,0,.05.02.07.05l.47.68s.03.08,0,.1c-.01.03-.04.05-.07.07Z"/>
              <path class="cls-18" d="M4.72,4.8c-.17.12-.36.21-.56.27s-.4.09-.62.09c-.19,0-.38-.02-.56-.07s-.35-.12-.5-.21-.3-.2-.43-.33c-.13-.13-.24-.27-.33-.42s-.16-.32-.21-.5c-.05-.18-.08-.36-.08-.56s.03-.38.08-.56c.05-.18.12-.35.21-.5s.2-.3.33-.43.27-.23.43-.32.32-.16.5-.21c.18-.05.36-.08.56-.08.22,0,.43.03.62.09s.38.15.55.27c.03.02.05.04.07.07.01.03,0,.06,0,.11l-.46.66s-.04.05-.06.05c-.02,0-.05,0-.08-.02-.09-.07-.19-.12-.3-.16s-.22-.05-.34-.05c-.15,0-.29.03-.41.08s-.24.13-.32.23-.16.22-.22.35c-.05.13-.08.27-.08.42s.02.29.08.42c.05.13.12.24.22.34s.2.18.32.23.27.08.41.08c.12,0,.24-.02.34-.05s.21-.09.3-.16c.03-.02.06-.03.08-.02.03,0,.05.02.07.05l.47.68s.02.08,0,.1c-.01.03-.04.05-.07.07Z"/>
              <path class="cls-71" d="M4.71,4.79c-.17.12-.36.21-.55.27s-.4.09-.62.09c-.19,0-.38-.02-.55-.07s-.35-.12-.5-.21-.3-.2-.42-.33c-.13-.13-.24-.27-.33-.42s-.16-.32-.21-.5c-.05-.18-.07-.36-.07-.55s.03-.38.07-.55c.05-.18.12-.34.21-.5s.2-.3.33-.43.27-.23.42-.32.32-.16.5-.21c.18-.05.36-.08.55-.08.22,0,.42.03.62.09s.38.15.55.26c.03.02.05.04.07.07.01.03,0,.06,0,.1l-.46.66s-.04.05-.06.05c-.02,0-.05,0-.08-.02-.09-.07-.19-.12-.3-.15s-.22-.05-.34-.05c-.15,0-.29.03-.41.08s-.23.13-.32.23-.16.21-.21.34c-.05.13-.08.27-.08.42s.02.29.08.42c.05.13.12.24.21.34s.2.17.32.23.26.08.41.08c.12,0,.23-.02.34-.05s.21-.09.3-.16c.03-.02.06-.03.08-.02.03,0,.05.02.07.05l.47.67s.02.08,0,.1c-.01.03-.04.05-.07.07Z"/>
              <path class="cls-66" d="M4.71,4.78c-.17.12-.35.2-.55.27s-.4.09-.62.09c-.19,0-.38-.02-.55-.07s-.34-.12-.5-.21-.3-.2-.42-.33c-.12-.12-.24-.27-.32-.42s-.16-.32-.21-.5c-.05-.18-.07-.36-.07-.55s.02-.38.07-.55c.05-.18.12-.34.21-.5s.2-.3.32-.43.27-.23.42-.32.32-.16.5-.21c.18-.05.36-.08.55-.08.22,0,.42.03.61.09s.38.15.54.26c.03.02.05.04.07.07.01.03,0,.06,0,.1l-.46.65s-.04.05-.06.05c-.02,0-.05,0-.08-.02-.09-.07-.19-.12-.29-.15s-.22-.05-.34-.05c-.15,0-.29.03-.41.08s-.23.13-.32.23-.16.21-.21.34-.07.27-.07.42.02.29.07.42.12.24.21.34.2.17.32.23.26.08.41.08c.12,0,.23-.02.34-.05s.21-.09.3-.15c.03-.02.06-.03.08-.02.03,0,.05.02.07.05l.46.67s.02.07,0,.1c-.01.03-.04.05-.07.07Z"/>
              <path class="cls-64" d="M4.7,4.78c-.17.12-.35.2-.55.27s-.4.09-.61.09c-.19,0-.37-.02-.55-.07s-.34-.12-.49-.21-.29-.2-.42-.32c-.12-.12-.23-.26-.32-.41s-.16-.32-.21-.49c-.05-.17-.07-.36-.07-.55s.02-.37.07-.55c.05-.18.12-.34.21-.49s.2-.3.32-.42.27-.23.42-.32.31-.16.49-.21c.17-.05.36-.07.55-.07.22,0,.42.03.61.09s.37.15.54.26c.03.02.05.04.07.07.01.03,0,.06,0,.1l-.46.65s-.04.05-.06.05c-.02,0-.05,0-.08-.02-.09-.07-.19-.12-.29-.15s-.22-.05-.34-.05c-.15,0-.28.03-.41.08s-.23.13-.32.23-.16.21-.21.34-.07.27-.07.41.02.29.07.42.12.24.21.34.2.17.32.23.26.08.41.08c.12,0,.23-.02.34-.05s.21-.09.3-.15c.03-.02.06-.03.08-.02.03,0,.05.02.07.05l.46.66s.02.07,0,.1c-.01.03-.04.05-.07.07Z"/>
              <path class="cls-45" d="M4.7,4.77c-.17.12-.35.2-.54.26s-.4.09-.61.09c-.19,0-.37-.02-.54-.07s-.34-.12-.49-.21-.29-.2-.42-.32c-.12-.12-.23-.26-.32-.41s-.16-.31-.21-.49c-.05-.17-.07-.35-.07-.54s.02-.37.07-.54c.05-.18.12-.34.21-.49s.2-.29.32-.42.27-.23.42-.32.31-.16.49-.21c.17-.05.36-.07.54-.07.21,0,.42.03.61.09s.37.15.54.26c.03.02.05.04.07.07.01.03,0,.06,0,.1l-.45.64s-.04.05-.06.05c-.02,0-.05,0-.08-.02-.09-.07-.19-.11-.29-.15s-.22-.05-.33-.05c-.15,0-.28.03-.41.08s-.23.13-.32.23-.16.21-.21.34-.07.27-.07.41.02.28.07.41.12.24.21.33.19.17.32.23.26.08.41.08c.12,0,.23-.02.34-.05s.21-.09.29-.15c.03-.02.06-.03.08-.02.03,0,.05.02.07.05l.46.66s.02.07,0,.1c-.01.03-.04.05-.07.07Z"/>
              <path class="cls-36" d="M4.69,4.76c-.17.11-.35.2-.54.26s-.39.09-.61.09c-.19,0-.37-.02-.54-.07s-.34-.12-.49-.2-.29-.2-.41-.32c-.12-.12-.23-.26-.32-.41s-.16-.31-.21-.49c-.05-.17-.07-.35-.07-.54s.02-.37.07-.54c.05-.18.12-.34.21-.49s.2-.29.32-.42.26-.23.41-.32.31-.16.49-.21c.17-.05.35-.07.54-.07.21,0,.42.03.6.09s.37.15.53.26c.03.02.05.04.07.07.01.03,0,.06,0,.1l-.45.64s-.04.05-.06.05c-.02,0-.05,0-.08-.02-.09-.07-.18-.11-.29-.15s-.21-.05-.33-.05c-.14,0-.28.03-.4.08s-.23.13-.32.23-.16.21-.21.34-.07.27-.07.41.02.28.07.41.12.24.21.33.19.17.32.23.26.08.4.08c.12,0,.23-.02.33-.05s.21-.09.29-.15c.03-.02.06-.03.08-.02.03,0,.05.02.07.05l.46.66s.02.07,0,.1c-.01.03-.04.05-.07.07Z"/>
              <path class="cls-32" d="M4.68,4.75c-.17.11-.35.2-.54.26s-.39.09-.6.09c-.19,0-.37-.02-.54-.07s-.34-.12-.48-.2-.29-.2-.41-.32c-.12-.12-.23-.26-.32-.41s-.16-.31-.2-.49c-.05-.17-.07-.35-.07-.54s.02-.37.07-.54c.05-.18.12-.33.2-.49s.19-.29.32-.42.26-.23.41-.31.31-.15.48-.2c.17-.05.35-.07.54-.07.21,0,.41.03.6.09s.37.15.53.26c.03.02.05.04.07.07.01.03,0,.06,0,.1l-.45.64s-.04.05-.06.05c-.02,0-.05,0-.08-.02-.09-.06-.18-.11-.29-.15s-.21-.05-.33-.05c-.14,0-.28.03-.4.08s-.23.13-.31.22-.16.21-.21.33-.07.26-.07.41.02.28.07.41.12.24.21.33.19.17.31.22.26.08.4.08c.12,0,.23-.02.33-.05s.2-.09.29-.15c.03-.02.06-.03.08-.02.02,0,.05.02.07.05l.45.65s.02.07,0,.1c-.01.03-.04.05-.07.07Z"/>
              <path class="cls-23" d="M4.68,4.75c-.17.11-.34.2-.54.26s-.39.09-.6.09c-.19,0-.36-.02-.53-.07s-.33-.12-.48-.2-.29-.19-.41-.32c-.12-.12-.23-.26-.32-.4s-.15-.31-.2-.48c-.05-.17-.07-.35-.07-.54s.02-.36.07-.53c.05-.17.12-.33.2-.48s.19-.29.32-.41.26-.22.41-.31.31-.15.48-.2c.17-.05.35-.07.53-.07.21,0,.41.03.6.09s.37.15.53.26c.03.02.05.04.07.07.01.03,0,.06,0,.1l-.44.63s-.04.05-.06.05c-.02,0-.05,0-.08-.02-.09-.06-.18-.11-.29-.15s-.21-.05-.33-.05c-.14,0-.28.03-.4.08s-.23.13-.31.22-.16.21-.21.33-.07.26-.07.41.02.28.07.41.12.23.21.33.19.17.31.22.26.08.4.08c.12,0,.23-.02.33-.05s.2-.09.29-.15c.03-.02.06-.03.08-.02.02,0,.05.02.06.05l.45.65s.02.07,0,.1c-.01.03-.04.05-.07.06Z"/>
              <path class="cls-78" d="M4.67,4.74c-.17.11-.34.2-.53.26s-.39.09-.6.09c-.18,0-.36-.02-.53-.07s-.33-.12-.48-.2-.29-.19-.41-.31c-.12-.12-.23-.26-.31-.4s-.15-.31-.2-.48c-.05-.17-.07-.35-.07-.53s.02-.36.07-.53c.05-.17.12-.33.2-.48s.19-.29.31-.41.26-.22.41-.31.31-.15.48-.2c.17-.05.35-.07.53-.07.21,0,.41.03.59.08s.36.14.52.25c.03.02.05.04.07.07.01.03,0,.06,0,.1l-.44.63s-.04.04-.06.05c-.02,0-.05,0-.08-.02-.09-.06-.18-.11-.28-.15s-.21-.05-.33-.05c-.14,0-.28.03-.4.08s-.23.13-.31.22-.16.21-.21.33-.07.26-.07.4.02.28.07.4.12.23.21.33.19.17.31.22.25.08.4.08c.12,0,.23-.02.33-.05s.2-.08.29-.15c.03-.02.06-.03.08-.02.02,0,.05.02.06.05l.45.64s.02.07,0,.1c-.01.03-.04.05-.06.06Z"/>
              <path class="cls-75" d="M4.67,4.73c-.16.11-.34.2-.53.26s-.38.09-.59.09c-.18,0-.36-.02-.53-.07s-.33-.11-.48-.2-.28-.19-.4-.31c-.12-.12-.23-.25-.31-.4s-.15-.3-.2-.48c-.05-.17-.07-.34-.07-.53s.02-.36.07-.53c.05-.17.12-.33.2-.48s.19-.29.31-.41.26-.22.4-.31.3-.15.48-.2c.17-.05.35-.07.53-.07.21,0,.41.03.59.08s.36.14.52.25c.03.02.05.04.07.07.01.03,0,.06,0,.1l-.44.63s-.04.04-.06.05c-.02,0-.05,0-.08-.02-.09-.06-.18-.11-.28-.15s-.21-.05-.33-.05c-.14,0-.27.03-.39.08s-.22.13-.31.22-.16.2-.2.33-.07.26-.07.4.02.28.07.4.12.23.2.32.19.17.31.22.25.08.39.08c.12,0,.22-.02.33-.05s.2-.08.29-.15c.03-.02.06-.03.08-.02.02,0,.05.02.06.05l.45.64s.02.07,0,.1c-.01.03-.04.05-.06.06Z"/>
              <path class="cls-33" d="M4.66,4.72c-.16.11-.34.2-.53.25s-.38.09-.59.09c-.18,0-.36-.02-.53-.07s-.33-.11-.47-.2-.28-.19-.4-.31c-.12-.12-.22-.25-.31-.4s-.15-.3-.2-.47c-.05-.17-.07-.34-.07-.53s.02-.36.07-.53c.05-.17.12-.33.2-.47s.19-.28.31-.41.26-.22.4-.31.3-.15.47-.2c.17-.05.34-.07.53-.07.21,0,.4.03.59.08s.36.14.52.25c.03.02.05.04.07.07.01.03,0,.06,0,.1l-.44.62s-.04.04-.06.05c-.02,0-.05,0-.08-.02-.09-.06-.18-.11-.28-.15s-.21-.05-.32-.05c-.14,0-.27.03-.39.08s-.22.13-.31.22-.16.2-.2.33-.07.26-.07.4.02.27.07.4.12.23.2.32.19.17.31.22.25.08.39.08c.11,0,.22-.02.33-.05s.2-.08.28-.15c.03-.02.06-.03.08-.02.02,0,.04.02.06.05l.44.64s.02.07,0,.1c-.01.03-.04.05-.06.06Z"/>
              <path class="cls-50" d="M4.65,4.72c-.16.11-.34.19-.52.25s-.38.09-.59.09c-.18,0-.36-.02-.52-.07s-.33-.11-.47-.2-.28-.19-.4-.31c-.12-.12-.22-.25-.31-.4s-.15-.3-.2-.47c-.05-.17-.07-.34-.07-.52s.02-.36.07-.52c.05-.17.11-.33.2-.47s.19-.28.31-.4.25-.22.4-.3.3-.15.47-.2c.17-.05.34-.07.52-.07.21,0,.4.03.58.08s.36.14.51.25c.03.02.05.04.07.07.01.03,0,.06,0,.1l-.43.62s-.04.04-.06.05c-.02,0-.05,0-.08-.02-.09-.06-.18-.11-.28-.15s-.21-.05-.32-.05c-.14,0-.27.03-.39.08s-.22.13-.3.22-.15.2-.2.32-.07.26-.07.4.02.27.07.4.12.23.2.32.19.16.3.22.25.08.39.08c.11,0,.22-.02.32-.05s.2-.08.28-.15c.03-.02.06-.03.07-.02.02,0,.04.02.06.05l.44.63s.02.07,0,.1c-.01.03-.04.05-.06.06Z"/>
              <path class="cls-26" d="M4.65,4.71c-.16.11-.33.19-.52.25s-.38.09-.58.09c-.18,0-.35-.02-.52-.07s-.32-.11-.47-.2-.28-.19-.4-.31c-.12-.12-.22-.25-.31-.39s-.15-.3-.2-.47c-.05-.17-.07-.34-.07-.52s.02-.35.07-.52c.05-.17.11-.32.2-.47s.19-.28.31-.4.25-.22.4-.3.3-.15.47-.2c.17-.05.34-.07.52-.07.21,0,.4.03.58.08s.35.14.51.25c.03.02.05.04.07.07.01.03,0,.06,0,.1l-.43.61s-.04.04-.06.05c-.02,0-.05,0-.08-.02-.09-.06-.18-.11-.28-.15s-.21-.05-.32-.05c-.14,0-.27.03-.39.08s-.22.13-.3.22-.15.2-.2.32-.07.26-.07.39.02.27.07.39.12.23.2.32.19.16.3.22.25.08.39.08c.11,0,.22-.02.32-.05s.2-.08.28-.15c.03-.02.06-.03.07-.02.02,0,.04.02.06.05l.44.63s.02.07,0,.09c-.01.03-.04.05-.06.06Z"/>
              <path class="cls-56" d="M4.64,4.7c-.16.11-.33.19-.52.25s-.38.09-.58.09c-.18,0-.35-.02-.52-.07s-.32-.11-.47-.2-.28-.19-.4-.31c-.12-.12-.22-.25-.3-.39s-.15-.3-.2-.47c-.05-.16-.07-.34-.07-.52s.02-.35.07-.52c.05-.17.11-.32.2-.47s.19-.28.3-.4.25-.22.4-.3.3-.15.47-.2c.16-.05.34-.07.52-.07.2,0,.4.03.58.08s.35.14.51.25c.03.02.05.04.07.07.01.03,0,.06,0,.1l-.43.61s-.04.04-.06.05c-.02,0-.05,0-.08-.02-.09-.06-.18-.11-.28-.14s-.21-.05-.32-.05c-.14,0-.27.03-.38.08s-.22.12-.3.21-.15.2-.2.32-.07.25-.07.39.02.27.07.39.11.23.2.32.18.16.3.22.25.08.38.08c.11,0,.22-.02.32-.05s.2-.08.28-.15c.03-.02.05-.03.07-.02.02,0,.04.02.06.05l.43.63s.02.07,0,.09c-.01.03-.04.05-.06.06Z"/>
              <path class="cls-63" d="M4.64,4.69c-.16.11-.33.19-.51.25s-.37.09-.58.09c-.18,0-.35-.02-.51-.07s-.32-.11-.46-.19-.28-.19-.39-.3c-.12-.12-.22-.25-.3-.39s-.15-.3-.2-.46c-.05-.16-.07-.33-.07-.51s.02-.35.07-.51c.05-.17.11-.32.2-.46s.19-.28.3-.4.25-.22.39-.3.29-.15.46-.19c.16-.05.34-.07.51-.07.2,0,.39.03.57.08s.35.14.51.24c.03.02.05.04.07.07.01.03,0,.06,0,.1l-.43.61s-.04.04-.06.05c-.02,0-.05,0-.08-.02-.09-.06-.17-.11-.27-.14s-.2-.05-.32-.05c-.14,0-.27.03-.38.08s-.22.12-.3.21-.15.2-.2.32-.07.25-.07.39.02.27.07.39.11.22.2.32.18.16.3.21.25.08.38.08c.11,0,.22-.02.32-.05s.19-.08.28-.14c.03-.02.05-.03.07-.02.02,0,.04.02.06.05l.43.62s.02.07,0,.09c-.01.03-.04.05-.06.06Z"/>
              <path class="cls-73" d="M4.63,4.68c-.16.11-.33.19-.51.25s-.37.08-.57.08c-.18,0-.35-.02-.51-.07s-.32-.11-.46-.19-.27-.19-.39-.3c-.12-.12-.22-.25-.3-.39s-.15-.29-.19-.46c-.05-.16-.07-.33-.07-.51s.02-.35.07-.51c.05-.17.11-.32.19-.46s.18-.28.3-.39.25-.21.39-.3.29-.15.46-.19c.16-.05.33-.07.51-.07.2,0,.39.03.57.08s.35.14.5.24c.03.02.05.04.07.07.01.03,0,.06,0,.1l-.42.6s-.04.04-.06.05c-.02,0-.05,0-.08-.02-.08-.06-.17-.11-.27-.14s-.2-.05-.31-.05c-.14,0-.26.03-.38.08s-.22.12-.3.21-.15.2-.2.32-.07.25-.07.39.02.27.07.39.11.22.2.31.18.16.3.21.24.08.38.08c.11,0,.22-.02.32-.05s.19-.08.28-.14c.03-.02.05-.03.07-.02.02,0,.04.02.06.05l.43.62s.02.07,0,.09c-.01.03-.04.05-.06.06Z"/>
              <path class="cls-21" d="M4.63,4.68c-.16.11-.33.19-.51.25s-.37.08-.57.08c-.18,0-.35-.02-.51-.07s-.32-.11-.46-.19-.27-.18-.39-.3c-.11-.11-.22-.24-.3-.38s-.15-.29-.19-.46c-.05-.16-.07-.33-.07-.51s.02-.35.07-.51c.05-.17.11-.32.19-.46s.18-.27.3-.39.25-.21.39-.3.29-.15.46-.19c.16-.05.33-.07.51-.07.2,0,.39.03.56.08s.35.14.5.24c.03.02.05.04.06.07.01.03,0,.06,0,.1l-.42.6s-.04.04-.06.05c-.02,0-.05,0-.08-.02-.08-.06-.17-.11-.27-.14s-.2-.05-.31-.05c-.14,0-.26.03-.38.08s-.21.12-.3.21-.15.2-.2.32-.07.25-.07.38.02.27.07.38.11.22.2.31.18.16.3.21.24.08.38.08c.11,0,.21-.02.31-.05s.19-.08.27-.14c.03-.02.05-.03.07-.02.02,0,.04.02.06.05l.43.61s.02.07,0,.09c-.01.03-.04.05-.06.06Z"/>
              <path class="cls-52" d="M4.62,4.67c-.16.11-.32.19-.5.24s-.37.08-.57.08c-.17,0-.34-.02-.5-.06s-.31-.11-.45-.19-.27-.18-.39-.3c-.11-.11-.22-.24-.3-.38s-.15-.29-.19-.45c-.05-.16-.07-.33-.07-.5s.02-.34.07-.5c.05-.16.11-.31.19-.45s.18-.27.3-.39.25-.21.39-.29.29-.14.45-.19c.16-.05.33-.07.5-.07.2,0,.39.03.56.08s.34.14.5.24c.03.02.05.04.06.07.01.03,0,.06,0,.1l-.42.6s-.04.04-.06.05c-.02,0-.05,0-.08-.02-.08-.06-.17-.11-.27-.14s-.2-.05-.31-.05c-.13,0-.26.03-.37.08s-.21.12-.29.21-.15.19-.19.31-.07.25-.07.38.02.26.07.38.11.22.19.31.18.16.29.21.24.08.37.08c.11,0,.21-.02.31-.05s.19-.08.27-.14c.03-.02.05-.03.07-.02.02,0,.04.02.06.05l.42.61s.02.07,0,.09c-.01.03-.03.05-.06.06Z"/>
              <path class="cls-65" d="M4.61,4.66c-.16.11-.32.19-.5.24s-.36.08-.56.08c-.17,0-.34-.02-.5-.06s-.31-.11-.45-.19-.27-.18-.38-.3c-.11-.11-.21-.24-.3-.38s-.14-.29-.19-.45c-.04-.16-.07-.33-.07-.5s.02-.34.07-.5c.05-.16.11-.31.19-.45s.18-.27.3-.39.24-.21.38-.29.29-.14.45-.19c.16-.05.33-.07.5-.07.2,0,.38.03.56.08s.34.14.49.24c.03.02.05.04.06.06.01.03,0,.06,0,.09l-.42.59s-.04.04-.06.05c-.02,0-.05,0-.08-.02-.08-.06-.17-.11-.27-.14s-.2-.05-.31-.05c-.13,0-.26.02-.37.08s-.21.12-.29.21-.15.19-.19.31-.07.25-.07.38.02.26.07.38.11.22.19.31.18.16.29.21.24.08.37.08c.11,0,.21-.02.31-.05s.19-.08.27-.14c.03-.02.05-.03.07-.02.02,0,.04.02.06.05l.42.61s.02.07,0,.09c-.01.03-.03.05-.06.06Z"/>
              <path class="cls-69" d="M4.61,4.65c-.16.11-.32.18-.5.24s-.36.08-.56.08c-.17,0-.34-.02-.5-.06s-.31-.11-.45-.19-.27-.18-.38-.29c-.11-.11-.21-.24-.29-.38s-.14-.29-.19-.45c-.04-.16-.07-.32-.07-.5s.02-.34.07-.5c.05-.16.11-.31.19-.45s.18-.27.29-.38.24-.21.38-.29.29-.14.45-.19c.16-.04.33-.07.5-.07.2,0,.38.02.55.08s.34.14.49.24c.03.02.05.04.06.06.01.03,0,.06,0,.09l-.41.59s-.04.04-.06.05c-.02,0-.05,0-.08-.02-.08-.06-.17-.11-.27-.14s-.2-.05-.31-.05c-.13,0-.26.02-.37.08s-.21.12-.29.21-.15.19-.19.31-.07.24-.07.38.02.26.07.38.11.22.19.31.18.16.29.21.24.08.37.08c.11,0,.21-.02.31-.05s.19-.08.27-.14c.03-.02.05-.03.07-.02.02,0,.04.02.06.05l.42.6s.02.07,0,.09c-.01.03-.03.05-.06.06Z"/>
              <path class="cls-30" d="M4.6,4.65c-.15.1-.32.18-.49.24s-.36.08-.56.08c-.17,0-.34-.02-.49-.06s-.31-.11-.45-.19-.27-.18-.38-.29c-.11-.11-.21-.24-.29-.37s-.14-.28-.19-.45c-.04-.16-.07-.32-.07-.49s.02-.34.07-.49c.05-.16.11-.31.19-.45s.18-.27.29-.38.24-.21.38-.29.28-.14.45-.19c.16-.04.32-.07.49-.07.2,0,.38.02.55.08s.34.13.49.24c.03.02.05.04.06.06.01.03,0,.06,0,.09l-.41.58s-.04.04-.06.05c-.02,0-.05,0-.07-.02-.08-.06-.17-.1-.26-.14s-.2-.05-.3-.05c-.13,0-.26.02-.37.08s-.21.12-.29.21-.15.19-.19.31-.07.24-.07.37.02.26.07.37.11.22.19.3.18.16.29.21.24.08.37.08c.11,0,.21-.02.31-.05s.19-.08.27-.14c.03-.02.05-.03.07-.02.02,0,.04.02.06.04l.42.6s.02.07,0,.09c-.01.03-.03.05-.06.06Z"/>
              <path class="cls-53" d="M4.6,4.64c-.15.1-.32.18-.49.24s-.36.08-.55.08c-.17,0-.33-.02-.49-.06s-.31-.11-.44-.19-.26-.18-.38-.29c-.11-.11-.21-.24-.29-.37s-.14-.28-.19-.44c-.04-.16-.07-.32-.07-.49s.02-.33.07-.49c.04-.16.11-.31.19-.44s.18-.27.29-.38.24-.21.38-.29.28-.14.44-.19c.16-.04.32-.07.49-.07.19,0,.38.02.55.08s.34.13.48.23c.03.02.05.04.06.06.01.03,0,.06,0,.09l-.41.58s-.04.04-.06.04c-.02,0-.05,0-.07-.02-.08-.06-.17-.1-.26-.14s-.2-.05-.3-.05c-.13,0-.25.02-.37.07s-.21.12-.29.2-.14.19-.19.31-.07.24-.07.37.02.26.07.37.11.21.19.3.18.16.29.2.23.07.37.07c.11,0,.21-.02.3-.05s.19-.08.27-.14c.03-.02.05-.03.07-.02.02,0,.04.02.06.04l.41.6s.02.07,0,.09c-.01.03-.03.04-.06.06Z"/>
              <path class="cls-60" d="M4.59,4.63c-.15.1-.31.18-.49.24-.17.06-.36.08-.55.08-.17,0-.33-.02-.49-.06s-.3-.11-.44-.18-.26-.18-.37-.29c-.11-.11-.21-.24-.29-.37s-.14-.28-.19-.44c-.04-.16-.07-.32-.07-.49s.02-.33.07-.49c.04-.16.11-.3.19-.44s.18-.26.29-.38.24-.21.37-.28.28-.14.44-.18c.16-.04.32-.07.49-.07.19,0,.37.02.54.08s.33.13.48.23c.03.02.05.04.06.06.01.03,0,.06,0,.09l-.41.58s-.04.04-.06.04c-.02,0-.05,0-.07-.02-.08-.06-.17-.1-.26-.14s-.19-.05-.3-.05c-.13,0-.25.02-.36.07s-.21.12-.28.2-.14.19-.19.3-.07.24-.07.37.02.26.07.37.11.21.19.3.17.15.28.2.23.07.36.07c.11,0,.21-.02.3-.05s.19-.08.26-.14c.03-.02.05-.03.07-.02.02,0,.04.02.06.04l.41.59s.02.07,0,.09c-.01.03-.03.04-.06.06Z"/>
              <path class="cls-61" d="M4.58,4.62c-.15.1-.31.18-.49.24-.17.06-.35.08-.54.08-.17,0-.33-.02-.48-.06s-.3-.11-.44-.18-.26-.18-.37-.29c-.11-.11-.21-.23-.29-.37s-.14-.28-.18-.44c-.04-.15-.07-.32-.07-.49s.02-.33.07-.48c.04-.16.11-.3.18-.44s.17-.26.29-.37.24-.2.37-.28.28-.14.44-.18c.15-.04.32-.07.48-.07.19,0,.37.02.54.08s.33.13.48.23c.03.02.05.04.06.06.01.03,0,.06,0,.09l-.4.57s-.04.04-.06.04c-.02,0-.05,0-.07-.02-.08-.06-.16-.1-.26-.14s-.19-.05-.3-.05c-.13,0-.25.02-.36.07s-.21.12-.28.2-.14.19-.19.3-.07.24-.07.37.02.25.07.37.11.21.19.3.17.15.28.2.23.07.36.07c.11,0,.21-.02.3-.05s.18-.08.26-.14c.03-.02.05-.03.07-.02.02,0,.04.02.06.04l.41.59s.02.07,0,.09c-.01.03-.03.04-.06.06Z"/>
              <path class="cls-76" d="M4.58,4.62c-.15.1-.31.18-.48.23-.17.06-.35.08-.54.08-.17,0-.33-.02-.48-.06s-.3-.1-.43-.18-.26-.18-.37-.28c-.11-.11-.21-.23-.28-.36s-.14-.28-.18-.43c-.04-.15-.07-.31-.07-.48s.02-.33.07-.48c.04-.16.11-.3.18-.43s.17-.26.28-.37.23-.2.37-.28.28-.14.43-.18c.15-.04.32-.07.48-.07.19,0,.37.02.54.08s.33.13.47.23c.03.02.05.04.06.06.01.03,0,.05,0,.09l-.4.57s-.04.04-.06.04c-.02,0-.05,0-.07-.02-.08-.06-.16-.1-.26-.14s-.19-.05-.3-.05c-.13,0-.25.02-.36.07s-.2.12-.28.2-.14.19-.19.3-.07.24-.07.37.02.25.07.36.11.21.19.3.17.15.28.2.23.07.36.07c.1,0,.2-.02.3-.05s.18-.08.26-.14c.03-.02.05-.03.07-.02.02,0,.04.02.06.04l.41.58s.02.06,0,.09c-.01.03-.03.04-.06.06Z"/>
              <path class="cls-28" d="M4.57,4.61c-.15.1-.31.18-.48.23-.17.06-.35.08-.54.08-.17,0-.33-.02-.48-.06s-.3-.1-.43-.18-.26-.17-.37-.28c-.11-.11-.2-.23-.28-.36s-.14-.28-.18-.43c-.04-.15-.06-.31-.06-.48s.02-.33.06-.48c.04-.16.11-.3.18-.43s.17-.26.28-.37.23-.2.37-.28.27-.14.43-.18c.15-.04.31-.07.48-.07.19,0,.37.02.53.08s.33.13.47.23c.03.02.05.04.06.06.01.03,0,.05,0,.09l-.4.57s-.04.04-.06.04c-.02,0-.05,0-.07-.02-.08-.06-.16-.1-.26-.13s-.19-.05-.29-.05c-.13,0-.25.02-.36.07s-.2.12-.28.2-.14.18-.18.3-.07.24-.07.36.02.25.07.36.11.21.18.29.17.15.28.2.23.07.36.07c.1,0,.2-.02.3-.05s.18-.08.26-.13c.03-.02.05-.03.07-.02.02,0,.04.02.06.04l.4.58s.02.06,0,.09c-.01.03-.03.04-.06.06Z"/>
              <path class="cls-13" d="M4.57,4.6c-.15.1-.31.18-.48.23-.17.05-.35.08-.53.08-.16,0-.32-.02-.48-.06-.16-.04-.3-.1-.43-.18-.13-.08-.26-.17-.36-.28-.11-.11-.2-.23-.28-.36-.08-.13-.14-.27-.18-.43-.04-.15-.06-.31-.06-.48s.02-.32.06-.48c.04-.15.1-.3.18-.43.08-.14.17-.26.28-.37.11-.11.23-.2.36-.28.13-.08.27-.14.43-.18.15-.04.31-.06.48-.06.19,0,.36.03.53.08.17.05.33.13.47.23.03.02.05.04.06.06.01.03,0,.05,0,.09l-.39.56s-.04.04-.06.04c-.02,0-.05,0-.07-.02-.08-.06-.16-.1-.25-.13-.09-.03-.19-.05-.29-.05-.13,0-.25.03-.35.07-.11.05-.2.11-.28.2-.08.09-.14.18-.18.3-.04.11-.06.23-.06.36s.02.25.06.36c.04.11.1.21.18.29.08.08.17.15.28.2.11.05.23.07.35.07.1,0,.2-.01.29-.05.09-.03.18-.08.26-.13.03-.02.05-.02.07-.02.02,0,.04.02.06.04l.4.58s.02.06,0,.09c-.01.02-.03.04-.06.06Z"/>
            </g>
          </g>
        </g>
        <g>
          <rect class="cls-31" x="0" y="10.16" width="7.2" height=".07"/>
          <rect class="cls-31" x="0" y="12.49" width="7.2" height=".07"/>
        </g>
      </g>
      <text class="cls-49" transform="translate(0 11.8)"><tspan class="cls-62" x="0" y="0">P</tspan><tspan x="1.06" y="0">RO</tspan><tspan class="cls-48" x="3.4" y="0">C</tspan><tspan class="cls-55" x="4.46" y="0">OM</tspan></text>
    </g>
  </g>
</svg>