<?xml version="1.0" encoding="UTF-8"?>
<svg id="Layer_1" xmlns="http://www.w3.org/2000/svg" viewBox="0 0 22.85 18.86">
  <defs>
    <style>
      .cls-1 {
        fill: #4da391;
      }

      .cls-2 {
        fill: none;
      }

      .cls-3 {
        fill: #475e88;
      }
    </style>
  </defs>
  <g>
    <path class="cls-3" d="M13.13,8.67l1.38,2.6c.03.06.06.13.11.2.04.08.07.15.07.2,0,.07-.02.12-.06.15-.04.03-.1.05-.17.05h-2.09c-.07,0-.13-.02-.19-.06-.05-.04-.09-.1-.11-.16l-1.23-2.31c.1,0,.22-.02.35-.04.84-.11,1.48-.37,1.94-.62h0Z"/>
    <path class="cls-1" d="M14.22,4.64c-.16-.36-.37-.67-.64-.94-.27-.27-.59-.48-.95-.63-.37-.16-.75-.24-1.17-.24h-3.93c-.09,0-.16.03-.2.08-.04.05-.07.12-.07.21v8.5c0,.09.03.15.07.2.05.04.12.06.2.06h1.81c.19,0,.28-.08.28-.26v-2.74h.77c.92-.03,2.46-.32,3.16-1,.19-.17.34-.37.48-.59.13-.22.24-.45.32-.7.07-.25.11-.51.11-.79,0-.41-.08-.79-.24-1.15ZM12.07,7.65c-.18.13-.38.22-.59.29-.21.07-.43.1-.66.1-.2,0-.4-.03-.59-.08-.19-.05-.37-.13-.53-.22-.17-.1-.32-.21-.45-.35-.13-.13-.25-.29-.35-.45-.09-.16-.17-.34-.22-.53-.05-.19-.08-.38-.08-.59s.03-.4.08-.59c.05-.19.13-.37.22-.53.1-.17.21-.32.35-.46.13-.13.29-.25.45-.34.16-.1.34-.17.53-.22.19-.05.38-.08.59-.08.23,0,.45.03.66.09.21.07.4.16.58.28.04.02.06.04.08.08.01.03,0,.07,0,.11l-.49.7s-.04.05-.07.05c-.03,0-.06,0-.09-.02-.1-.07-.2-.12-.32-.16-.11-.04-.23-.06-.36-.06-.16,0-.3.03-.44.09-.13.06-.25.14-.34.25-.1.11-.17.23-.23.37-.05.14-.08.29-.08.45s.03.31.08.45c.05.14.13.26.23.36.09.1.21.19.34.25.13.06.28.09.44.09.13,0,.25-.02.36-.06.12-.04.22-.09.32-.16.04-.02.06-.03.08-.03.03,0,.05.02.07.05l.5.71s.03.08,0,.11c-.01.03-.04.05-.07.07Z"/>
  </g>
  <polygon class="cls-2" points="0 .26 22.85 0 22.69 18.86 0 18.86 0 .26"/>
</svg>