<?xml version="1.0" encoding="UTF-8"?>
<svg xmlns="http://www.w3.org/2000/svg" viewBox="426 291 475 600">
  <path transform="translate(426,291)" d="m0 0h264l23 2 23 5 18 6 20 9 20 12 13 10 12 11 14 14 12 16 11 18 11 23 7 21 5 24 2 22v16l-2 21-4 20-8 24-11 23-10 16-9 12-9 10-7 8-13 11-15 10-21 11-28 11-26 8-30 7-30 5-29 3h-64v190l-3 7-4 4-5 2h-131l-6-3-4-5-1-3v-588l4-8 6-4zm203 53-18 3-16 5-16 7-14 8-12 9-10 9-7 7-10 13-8 13-10 21-6 20-3 17v35l3 18 5 17 8 18 6 11 10 14 11 12 9 9 15 11 16 9 17 7 21 5 7 1h32l18-3 21-7 19-10 11-8 2-3-1-6-29-44-5-7-7-1-14 9-18 6-7 1h-14l-15-3-11-5-11-7-9-9-9-14-5-12-3-13-1-16 2-17 5-15 5-10 10-13 11-9 14-7 12-3 14-1 15 2 16 6 11 7 1 1h6l6-7 8-12 17-25 5-8v-6l-5-5-11-7-16-8-13-5-18-4-8-1z" fill="rgb(255, 212, 224)" opacity="1"/>
  <path transform="translate(792,687)" d="m0 0h3l11 22 10 19 24 47 17 33 20 39 17 33 2 6v8l-3 5-6 4h-149l-6-3-6-7-12-25-15-29-13-26-10-19-14-28-10-19-7-14v-2l37-5 24-5 25-7 25-9 29-14z" fill=" #db0042" opacity="0.7"/>
</svg>
